<svg width="32" height="32" viewBox="0 0 32 32" fill="none" xmlns="http://www.w3.org/2000/svg">
<g id="fluent:fingerprint-48-filled">
<path id="Vector" d="M10.1653 6.60133C11.712 5.70866 13.8967 5.256 16.1827 5.348C18.4633 5.43866 20.7313 6.068 22.4427 7.21266C22.5518 7.28572 22.6742 7.33657 22.803 7.36231C22.9318 7.38804 23.0644 7.38816 23.1932 7.36265C23.322 7.33715 23.4446 7.28652 23.5538 7.21366C23.6631 7.14079 23.7569 7.04712 23.83 6.93799C23.9031 6.82887 23.9539 6.70642 23.9796 6.57764C24.0054 6.44886 24.0055 6.31627 23.98 6.18744C23.9545 6.05862 23.9039 5.93608 23.831 5.82682C23.7581 5.71756 23.6645 5.62372 23.5553 5.55066C21.4707 4.15666 18.824 3.45133 16.2627 3.34933C13.7067 3.24666 11.1227 3.74 9.166 4.86933C8.94177 5.00457 8.77954 5.22237 8.71416 5.47593C8.64878 5.72949 8.68546 5.99858 8.81632 6.22538C8.94719 6.45219 9.16179 6.61862 9.41403 6.68891C9.66627 6.75921 9.93602 6.72776 10.1653 6.60133ZM17.1387 7.19666C16.8794 7.1666 16.6186 7.23912 16.412 7.39875C16.2054 7.55838 16.0695 7.79245 16.0332 8.05097C15.9969 8.30948 16.0631 8.57194 16.2178 8.78228C16.3724 8.99261 16.6031 9.13416 16.8607 9.17666C20.654 9.70999 22.9073 11.8633 24.2633 14.074C25.6353 16.3107 26.064 18.5747 26.1553 19.1567C26.1964 19.4187 26.3398 19.6537 26.5541 19.81C26.7684 19.9663 27.036 20.031 27.298 19.99C27.56 19.949 27.795 19.8055 27.9513 19.5912C28.1076 19.377 28.1723 19.1094 28.1313 18.8473C28.0213 18.1453 27.5373 15.586 25.968 13.028C24.3827 10.444 21.664 7.832 17.1387 7.19666ZM12.5533 14.1987C10.1133 16.1633 8.67266 20.4147 11.32 25.8987C11.4354 26.1376 11.4511 26.4126 11.3637 26.6632C11.2763 26.9137 11.093 27.1193 10.854 27.2347C10.615 27.35 10.34 27.3657 10.0895 27.2784C9.83894 27.191 9.63337 27.0076 9.518 26.7687C6.554 20.626 7.98933 15.306 11.2987 12.6413C12.936 11.3227 15.0067 10.6907 17.1053 10.992C19.212 11.294 21.2527 12.5213 22.8587 14.7473C23.0094 14.9625 23.0694 15.2284 23.0257 15.4875C22.982 15.7465 22.838 15.978 22.625 16.1318C22.412 16.2856 22.147 16.3494 21.8873 16.3094C21.6277 16.2694 21.3942 16.1288 21.2373 15.918C19.906 14.0727 18.3227 13.1867 16.8213 12.9713C15.3113 12.7553 13.79 13.2027 12.5533 14.1987ZM15.652 27.2267C14.0033 23.838 13.5253 21.0053 13.8373 19.1573C13.9907 18.244 14.324 17.642 14.722 17.2893C15.102 16.9527 15.6373 16.756 16.406 16.8293C17.44 16.9273 17.8987 17.2593 18.1773 17.6293C18.5113 18.0747 18.6993 18.7133 18.914 19.6773C18.9407 19.7953 18.9673 19.9167 18.994 20.0407C19.386 21.8467 19.9147 24.2833 22.3927 26.1693C22.6039 26.3271 22.8689 26.3951 23.13 26.3585C23.391 26.3219 23.6271 26.1836 23.7868 25.9739C23.9465 25.7641 24.0169 25.4997 23.9826 25.2383C23.9484 24.9769 23.8123 24.7396 23.604 24.578C21.7267 23.1493 21.3373 21.38 20.934 19.55V19.5487L20.8667 19.242C20.6613 18.322 20.4053 17.2653 19.7753 16.428C19.09 15.516 18.0633 14.9773 16.5947 14.838C15.3587 14.7207 14.2493 15.036 13.396 15.7927C12.56 16.5327 12.0707 17.606 11.8647 18.8247C11.4567 21.244 12.1093 24.5167 13.8533 28.102C13.9694 28.3405 14.1755 28.5231 14.4262 28.6097C14.677 28.6963 14.9518 28.6797 15.1903 28.5637C15.4288 28.4476 15.6115 28.2415 15.6981 27.9908C15.7846 27.74 15.7681 27.4652 15.652 27.2267ZM7.73866 7.30666C7.91774 7.50223 8.01181 7.76092 8.00018 8.02583C7.98855 8.29075 7.87219 8.5402 7.67666 8.71933C6.80434 9.52907 6.05748 10.4642 5.46066 11.494C5.32982 11.7247 5.11268 11.894 4.85701 11.9647C4.60133 12.0353 4.32807 12.0015 4.09733 11.8707C3.86659 11.7398 3.69728 11.5227 3.62664 11.267C3.556 11.0113 3.58982 10.7381 3.72066 10.5073C4.00733 10.0007 4.88866 8.56066 6.326 7.244C6.42285 7.15522 6.53624 7.08641 6.6597 7.04148C6.78316 6.99655 6.91426 6.97639 7.04551 6.98214C7.17676 6.9879 7.30559 7.01947 7.42464 7.07503C7.54369 7.1306 7.65062 7.20908 7.73933 7.30599L7.73866 7.30666ZM24.316 18.9813C24.2921 18.8518 24.2429 18.7283 24.1712 18.6179C24.0995 18.5075 24.0067 18.4123 23.8981 18.3378C23.7895 18.2633 23.6673 18.211 23.5384 18.1839C23.4095 18.1568 23.2766 18.1554 23.1472 18.1798C23.0178 18.2042 22.8945 18.254 22.7844 18.3261C22.6743 18.3983 22.5795 18.4915 22.5055 18.6005C22.4314 18.7094 22.3797 18.8318 22.3531 18.9608C22.3265 19.0898 22.3257 19.2227 22.3507 19.352C22.724 21.332 23.6393 22.9867 25.308 24.0173C25.5334 24.1504 25.802 24.1899 26.0562 24.1271C26.3104 24.0644 26.5298 23.9044 26.6673 23.6817C26.8049 23.459 26.8496 23.1912 26.7919 22.9358C26.7342 22.6805 26.5786 22.4579 26.3587 22.316C25.2893 21.6553 24.6147 20.5653 24.316 18.9813ZM16.096 19.0013C16.3602 18.9792 16.6224 19.0629 16.825 19.234C17.0275 19.4052 17.1538 19.6498 17.176 19.914C17.4773 23.508 19.2707 25.7787 19.762 26.3373C19.937 26.5366 20.0258 26.7972 20.0086 27.0619C19.9915 27.3266 19.8699 27.5736 19.6707 27.7487C19.572 27.8353 19.4572 27.9017 19.3329 27.944C19.2086 27.9864 19.0771 28.0038 18.9461 27.9953C18.6814 27.9782 18.4344 27.8566 18.2593 27.6573C17.6167 26.926 15.5333 24.2647 15.1827 20.0813C15.1717 19.9504 15.1866 19.8187 15.2266 19.6936C15.2666 19.5684 15.3308 19.4524 15.4156 19.3521C15.5004 19.2518 15.6042 19.1692 15.7209 19.109C15.8376 19.0489 15.9651 19.0123 16.096 19.0013ZM13.396 9.48933C13.6343 9.3806 13.8204 9.18272 13.9144 8.93823C14.0083 8.69373 14.0026 8.42213 13.8984 8.18181C13.7942 7.94149 13.5999 7.75164 13.3572 7.65307C13.1146 7.55449 12.8429 7.55507 12.6007 7.65466C8.024 9.63933 5.92666 13.02 5.022 16.064C4.12666 19.072 4.39 21.7487 4.48466 22.4673C4.52176 22.7282 4.66033 22.9639 4.87025 23.1232C5.08017 23.2825 5.34447 23.3525 5.60571 23.3179C5.86695 23.2834 6.104 23.1472 6.26534 22.9388C6.42669 22.7305 6.49927 22.4669 6.46733 22.2053C6.39 21.6187 6.15733 19.26 6.93866 16.6347C7.70933 14.0453 9.46 11.1967 13.396 9.48933Z" fill="#F19305"/>
</g>
</svg>
