<svg width="18" height="18" viewBox="0 0 18 18" fill="none" xmlns="http://www.w3.org/2000/svg">
<path d="M16.0603 2.24682C15.6396 1.79367 15.1401 1.43425 14.5904 1.18912C14.0408 0.943984 13.4516 0.817936 12.8567 0.818177C12.2618 0.818417 11.6727 0.944942 11.1232 1.19052C10.5737 1.4361 10.0745 1.79592 9.65415 2.24941L9.10544 2.84769L8.56129 2.25071L8.55775 2.2469C8.13728 1.79396 7.6381 1.43466 7.08873 1.18953C6.53935 0.944401 5.95053 0.818234 5.35589 0.818234C4.76125 0.818234 4.17243 0.944401 3.62305 1.18953C3.07368 1.43466 2.5745 1.79396 2.15403 2.2469L1.90958 2.51022C1.0604 3.42497 0.583336 4.66563 0.583336 5.95928C0.583336 7.25292 1.0604 8.49359 1.90958 9.40833L8.36117 16.358L9.08973 17.1803L9.1071 17.1615L9.12596 17.1818L9.80857 16.406L16.3047 9.40822C17.1526 8.49275 17.6288 7.25236 17.6288 5.95916C17.6288 4.66597 17.1526 3.42558 16.3047 2.5101L16.0603 2.24682ZM15.5041 8.54597L9.1071 15.437L2.70999 8.54597C2.07311 7.85991 1.71531 6.92941 1.71531 5.95918C1.71531 4.98895 2.07311 4.05845 2.70999 3.37239L2.95448 3.10907C3.59105 2.42335 4.45433 2.03796 5.35458 2.03759C6.25483 2.03723 7.11838 2.42192 7.75543 3.10713L9.103 4.58519L10.457 3.10907C10.7723 2.76936 11.1467 2.4999 11.5587 2.31605C11.9708 2.1322 12.4124 2.03757 12.8584 2.03757C13.3044 2.03757 13.746 2.1322 14.158 2.31605C14.57 2.4999 14.9444 2.76936 15.2598 3.10907L15.5042 3.37235C16.1401 4.05898 16.4973 4.98929 16.4972 5.95919C16.4972 6.9291 16.14 7.85938 15.5041 8.54597Z" fill="#2E2E2E" stroke="#2E2E2E" stroke-width="0.5"/>
</svg>
